PathFileType	4	(X/Y/Z)	TVC_4_BWA_8_walk_RCNL2025.trc
DataRate	CameraRate	NumFrames	NumMarkers	Units	OrigDataRate	OrigDataStartFrame	OrigNumFrames
100	100	10	27	mm	100	37	294
Frame#	Time	R_Shoulder			L_Shoulder			C7			J_Notch			R_Elbow			L_Elbow			R_Wrist			L_Wrist			R_Asis			L_Asis			R_Psis			L_Psis			Sacral			Thoracic			Sternum			R_Thigh_Lateral			R_Knee_Lateral			R_Shank_Lateral			R_Ankle_Lateral			R_Heel			R_Toe			L_Thigh_Lateral			L_Knee_Lateral			L_Shank_Lateral			L_Ankle_Lateral			L_Heel			L_Toe		
		X1	Y1	Z1	X2	Y2	Z2	X3	Y3	Z3	X4	Y4	Z4	X5	Y5	Z5	X6	Y6	Z6	X7	Y7	Z7	X8	Y8	Z8	X9	Y9	Z9	X10	Y10	Z10	X11	Y11	Z11	X12	Y12	Z12	X13	Y13	Z13	X14	Y14	Z14	X15	Y15	Z15	X16	Y16	Z16	X17	Y17	Z17	X18	Y18	Z18	X19	Y19	Z19	X20	Y20	Z20	X21	Y21	Z21	X22	Y22	Z22	X23	Y23	Z23	X24	Y24	Z24	X25	Y25	Z25	X26	Y26	Z26	X27	Y27	Z27
37	0.36000000	-1119.221558	1300.208740	389.599243	-1116.628540	1325.879639	9.850770	-1175.456787	1380.649536	215.037216	-1036.636475	1257.547729	188.251373	-1177.947754	988.812927	448.234039	-1173.756592	1002.304443	-61.881840	-1112.981995	768.786102	444.300400	-1070.019897	813.747375	-60.108994	-1114.604248	872.236389	360.498352	-1175.152466	851.972351	13.342812	-1276.593140	907.729492	262.366882	-1290.117798	901.099060	171.020142	-1283.355469	904.414276	216.693512	-1265.634644	1136.054077	204.752121	-1007.159485	1066.595459	178.039474	-1090.269531	521.879700	375.607239	-1090.632202	432.059570	321.585114	-1098.457642	258.198486	380.715057	-1127.563843	49.219231	279.924500	-1178.443359	45.160099	238.136261	-999.117737	38.716694	250.318253	-1098.160522	498.595825	5.380764	-1111.363525	423.264038	52.695026	-1185.734253	341.915771	5.684191	-1359.008057	155.890152	77.475624	-1395.061401	172.428589	129.155914	-1262.741333	62.626934	79.137138
38	0.37000000	-1109.477661	1300.683105	390.388367	-1108.561401	1326.127930	10.567649	-1166.335205	1381.207886	216.089066	-1027.814453	1257.852417	188.679733	-1165.180786	988.778625	449.806152	-1168.147339	1002.786194	-60.106388	-1097.090027	769.773651	445.161636	-1068.224121	812.272186	-58.964155	-1106.640625	872.238281	361.460144	-1166.564697	852.918335	14.079243	-1268.340698	908.220886	263.282013	-1281.849243	901.769226	171.928406	-1275.094971	904.995056	217.605209	-1257.015747	1136.760620	206.371216	-998.725403	1066.749390	178.152588	-1082.954102	521.671570	375.595367	-1085.970459	431.602753	321.668304	-1096.269897	257.827026	380.810913	-1127.388184	49.231716	279.830109	-1178.335815	45.437035	238.137344	-999.049133	38.665916	250.354889	-1085.078979	500.876556	5.728969	-1096.005371	425.447632	53.177593	-1169.217285	343.677063	6.316607	-1337.447876	153.233017	77.505814	-1373.744629	168.094604	129.566605	-1238.417358	62.789963	77.712845
39	0.38000000	-1099.856445	1301.105469	391.105499	-1100.539307	1326.273193	11.207701	-1157.281128	1381.676880	217.055023	-1019.050842	1258.075073	189.038025	-1152.340332	988.698303	451.302063	-1162.581665	1003.204529	-58.392979	-1081.084839	770.771057	445.954163	-1066.498047	810.797913	-57.866970	-1098.740356	872.146729	362.381287	-1157.793457	854.062439	14.839840	-1260.124512	908.601746	264.100800	-1273.592773	902.354980	172.735291	-1266.858643	905.478363	218.418045	-1248.447266	1137.370117	207.918640	-990.340942	1066.847046	178.234650	-1075.617554	521.393433	375.459198	-1081.267212	431.121338	321.644043	-1094.535156	257.450134	380.843292	-1127.208374	49.261230	279.726013	-1178.180542	45.692818	238.058762	-998.983337	38.622612	250.370071	-1072.186523	503.051819	6.276244	-1080.761230	427.701904	53.767635	-1152.448730	344.928955	6.907515	-1314.996826	149.546402	77.582886	-1351.632935	162.692062	129.917892	-1212.991455	62.395752	76.688248
40	0.39000000	-1090.351440	1301.481812	391.754669	-1092.555054	1326.320923	11.776807	-1148.293091	1382.054077	217.937836	-1010.340576	1258.218872	189.334717	-1139.447266	988.586426	452.718292	-1157.052734	1003.566711	-56.739208	-1064.992432	771.787811	446.669418	-1064.817505	809.336700	-56.822844	-1090.877686	871.969116	363.252380	-1148.873535	855.354553	15.605212	-1251.931152	908.875305	264.819611	-1265.338257	902.850037	173.437057	-1258.634705	905.862671	219.128334	-1239.921631	1137.878052	209.388657	-981.996765	1066.894775	178.307007	-1068.411621	521.034058	375.226532	-1076.559204	430.613770	321.524628	-1093.040527	257.083221	380.818909	-1127.026001	49.308022	279.616333	-1177.978638	45.928226	237.901413	-998.916748	38.577301	250.357773	-1059.392578	505.113159	6.996489	-1065.639526	429.971100	54.431416	-1135.408325	345.628387	7.431859	-1291.699707	144.945938	77.708641	-1328.742065	156.366791	130.211960	-1186.603271	61.527840	76.048401
41	0.40000000	-1080.954590	1301.815186	392.340240	-1084.601685	1326.276123	12.280990	-1139.369263	1382.336182	218.740952	-1001.678223	1258.286743	189.578735	-1126.524658	988.453491	454.052246	-1151.554199	1003.878418	-55.142902	-1048.837311	772.831818	447.299210	-1063.157959	807.898834	-55.837337	-1083.027710	871.711792	364.063354	-1139.856079	856.723206	16.344759	-1243.747925	909.044189	265.434875	-1257.075684	903.247314	174.030396	-1250.411804	906.145752	219.732635	-1231.431519	1138.279419	210.776245	-973.683105	1066.896606	178.388351	-1061.433105	520.590759	374.919281	-1071.870728	430.077759	321.321930	-1091.543457	256.735107	380.742188	-1126.842041	49.371452	279.504120	-1177.740967	46.150852	237.682968	-998.846069	38.522968	250.315002	-1046.643311	507.074463	7.842073	-1050.673218	432.194763	55.130726	-1118.115601	345.767242	7.877123	-1267.592163	139.560089	77.887573	-1305.079834	149.260620	130.464615	-1159.369995	60.287773	75.756500
42	0.41000000	-1071.656128	1302.105103	392.866699	-1076.672607	1326.142700	12.726029	-1130.507568	1382.519775	219.468185	-993.058105	1258.280273	189.779068	-1113.596191	988.305969	455.302246	-1146.079468	1004.143311	-53.602482	-1032.642822	773.908905	447.835983	-1061.494995	806.492706	-54.915958	-1075.169312	871.380066	364.804504	-1130.802368	858.084106	17.023216	-1235.563354	909.110046	265.942963	-1248.795532	903.539001	174.512375	-1242.179443	906.324524	220.227669	-1222.969116	1138.569214	212.076950	-965.389526	1066.853271	178.493744	-1054.727905	520.067444	374.553772	-1067.216675	429.510651	321.047272	-1089.832886	256.404999	380.611755	-1126.656738	49.449902	279.390717	-1177.485840	46.372208	237.431747	-998.769043	38.455704	250.241684	-1033.920532	508.958801	8.751227	-1035.913330	434.310547	55.826118	-1100.624023	345.366486	8.242679	-1242.700684	133.526672	78.125778	-1280.649170	141.510895	130.701752	-1131.388062	58.788815	75.761803
43	0.42000000	-1062.445923	1302.348511	393.338409	-1068.761108	1325.923828	13.117142	-1121.705566	1382.601074	220.123398	-984.474365	1258.200195	189.944397	-1100.686279	988.145752	456.467224	-1140.620850	1004.362732	-52.117264	-1016.431488	775.022644	448.272980	-1059.803528	805.124451	-54.064013	-1067.285156	870.978638	365.467346	-1121.771484	859.349731	17.608385	-1227.366821	909.073364	266.340485	-1240.488159	903.716797	174.880539	-1233.927490	906.395081	220.610512	-1214.526855	1138.742065	213.286758	-957.105347	1066.763062	178.633804	-1048.302246	519.471191	374.141907	-1062.607056	428.909973	320.711853	-1087.779419	256.083374	380.421478	-1126.470215	49.541050	279.275543	-1177.232056	46.602695	237.176498	-998.685303	38.374714	250.140213	-1021.238770	510.784698	9.657647	-1021.423462	436.257446	56.480301	-1083.009888	344.468506	8.536372	-1217.044434	126.990639	78.430222	-1255.449707	133.253464	130.953888	-1102.737671	57.151840	76.006989
44	0.43000000	-1053.313843	1302.539307	393.759277	-1060.860474	1325.621094	13.458720	-1112.960571	1382.575562	220.710190	-975.920837	1258.046265	190.082672	-1087.818359	987.971069	457.546875	-1135.169922	1004.535889	-50.687740	-1000.224945	776.174255	448.604355	-1058.058777	803.797791	-53.286409	-1059.362061	870.511292	366.045380	-1112.810547	860.437500	18.077677	-1219.149414	908.933167	266.624237	-1232.144287	903.771912	175.132996	-1225.646851	906.352539	220.878616	-1206.097046	1138.792847	214.401962	-948.819397	1066.622192	178.814484	-1042.137329	518.810242	373.692474	-1058.050659	428.274597	320.327240	-1085.355713	255.756760	380.165924	-1126.282715	49.642349	279.156616	-1176.994507	46.848251	236.939285	-998.595703	38.282093	250.015594	-1008.639648	512.554993	10.500126	-1007.273926	437.978699	57.061108	-1065.363770	343.128937	8.769721	-1190.639160	120.102760	78.808052	-1229.478638	124.626373	131.251343	-1073.487305	55.502415	76.434250
45	0.44000000	-1044.249756	1302.668945	394.132599	-1052.963745	1325.235107	13.754136	-1104.269409	1382.439453	221.231659	-967.391296	1257.817017	190.200729	-1075.014648	987.776428	458.541412	-1129.716187	1004.660156	-49.315727	-984.044312	777.362701	448.825363	-1056.235535	802.514282	-52.587530	-1051.391846	869.981384	366.534454	-1103.948120	861.278259	18.421013	-1210.902710	908.687256	266.791473	-1223.754761	903.695618	175.268494	-1217.328735	906.191437	221.029984	-1197.672729	1138.716187	215.418945	-940.520874	1066.425049	179.037003	-1036.203979	518.092957	373.213806	-1053.558716	427.605743	319.906403	-1082.625977	255.412949	379.845886	-1126.095459	49.751335	279.031464	-1176.782837	47.109745	236.732956	-998.502625	38.182243	249.875214	-996.186829	514.250000	11.229926	-993.536194	439.424286	57.543690	-1047.781006	341.409088	8.953322	-1163.503174	113.018417	79.266029	-1202.734253	115.772835	131.621689	-1043.700317	53.968502	76.990097
46	0.45000000	-1035.244629	1302.727417	394.460724	-1045.063721	1324.765869	14.005582	-1095.628418	1382.188354	221.690125	-958.879333	1257.510620	190.303925	-1062.295166	987.553711	459.451569	-1124.247192	1004.731140	-48.004459	-967.910583	778.584717	448.932388	-1054.308960	801.273132	-51.971138	-1043.369873	869.392029	366.933105	-1095.192139	861.822571	18.640066	-1202.619751	908.332275	266.839996	-1215.310791	903.479492	175.286636	-1208.965271	905.905884	221.063316	-1189.246582	1138.507446	216.334122	-932.199219	1066.165405	179.298141	-1030.476074	517.328125	372.716888	-1049.144897	426.907471	319.464142	-1079.712524	255.044113	379.471161	-1125.909790	49.865910	278.898193	-1176.601196	47.384365	236.561661	-998.409119	38.081039	249.727875	-983.961243	515.825989	11.814436	-980.278381	440.552612	57.911491	-1030.353516	339.370117	9.093691	-1135.663940	105.895554	79.810310	-1175.221313	106.842583	132.088608	-1013.441406	52.677319	77.629593
